# xmcd
#
# Track frame offsets:
#	150
#	21450
#	35123
#	55761
#	78620
#	98645
#	116468
#	134559
#	157454
#	175843
#	200813
#	210901
#	220236
#
# Disc length: 3114 seconds
#
# Revision: 1
# Processed by: cddbd v1.5.2PL0 Copyright (c) Steve Scherf et al.
# Submitted via: EasyCDDAExtractor 2011.0.0.0
#
DISCID=c30c280d
DTITLE=Various Artist - 축복 10
DYEAR=2001
DGENRE=CCM
TTITLE0=옹기기장이 - 내 주는 강한 성이요
TTITLE1=러브 - 예수님께서 말씀하셨네
TTITLE2=새하늘 새땅 - 나팔꽃 넝쿨
TTITLE3=이빈 - 천로역정
TTITLE4=박라나 - 나같은 죄인 살리신
TTITLE5=김주원 - 평화가
TTITLE6=햅시바 - 경배하리
TTITLE7=박종관 - 너로 인하여
TTITLE8=오형아 - 주여 내 친구에게
TTITLE9=이응주 - FRIEND
TTITLE10=한수연 - 이사야6장
TTITLE11=변찬 - 영광 돌리리
TTITLE12=한수연 - I LOVE YOU LORD
EXTD=
EXTT0=
EXTT1=
EXTT2=
EXTT3=
EXTT4=
EXTT5=
EXTT6=
EXTT7=
EXTT8=
EXTT9=
EXTT10=
EXTT11=
EXTT12=
PLAYORDER=
